<svg xmlns="http://www.w3.org/2000/svg" data-title="mask" viewBox="0 0 512 512">
  <g >
    <ellipse cx="196" cy="340" rx="59.995" ry="59.996"/>
    <g>
      <path d="M196.43 184a59.995 59.996 0 0158.494 71.218 59.995 59.996 0 01-50.461 106.73 60.006 60.007 0 01-12.631-4.989 59.985 59.986 0 01-59.347 16.992 59.995 59.996 0 01-39.61-34.385 59.995 59.996 0 01-5.883-118.14h.02a59.985 59.986 0 0168.903-22.032 59.985 59.986 0 0140.515-15.398z" class="cloud"/>
      <path d="M244.23 304a60.088 60.089 0 0043.456-19.028 60.15 60.151 0 0043.775 4.989 59.985 59.986 0 0042.479-73.491 59.965 59.965 0 00-13.381-24.552 60.019 60.019 0 001.358-35.434 60.088 60.089 0 00-101.92-25.426 60.067 60.068 0 00-77.296 18.41c-40.32 9.566-51.438 48.457-44.99 74.078 5.987 23.76 26.497 41.09 50.853 44.012A60.067 60.068 0 00244.229 304z" class="cloud"/>
      <path d="M366.31 160.05a62.906 62.907 0 00-17.815 1.893 60.849 60.85 0 00-28.316 15.974 63.307 63.308 0 00-43.693-4.67c-32.009 8.064-51.016 39.044-42.418 69.17a55.151 55.152 0 0010.923 20.428 53.351 53.352 0 001.07 24.747c8.578 30.137 41.502 47.962 73.51 39.888a62.022 62.023 0 0012.61-4.68c2.253 2.263 4.784 4.176 7.355 6.048A60.006 56.468 0 00388.012 352a60.006 56.468 0 0060.006-56.468 60.006 56.468 0 00-1.131-10.718c19.913-13.443 29.643-37.275 23.07-60.356-7.036-24.686-30.785-41.863-57.938-41.863-11.026-13.844-27.956-21.908-45.71-22.546z" class="cloud"/>
      <path d="M207.58 112a59.995 59.996 0 00-59.121 52.827 59.995 59.996 0 0023.554 115.16 59.985 59.986 0 0091.809 4.978 59.985 59.986 0 0075.177-90.236 59.985 59.986 0 00-87.17-63.699 59.985 59.986 0 00-44.259-19.028z" class="cloud"/>
      <path d="M267.59 208a59.995 59.996 0 00-47.571 23.996 59.995 59.996 0 00-57.949 75.538c3.641 13.556 13.042 24.027 23.41 33.49 12.343 42.788 48.383 51.12 74.076 44.928 4.412-1.06 8.62-2.85 12.631-4.989a59.985 59.986 0 00103.81-40.968 59.995 59.996 0 00-57.301-104.09A59.995 59.996 0 00267.587 208z" class="cloud"/>
    </g>
  </g>
</svg>
