<svg xmlns="http://www.w3.org/2000/svg" id="svg919" data-title="darkcloud" version="1.1" viewBox="0 0 16 16">
  <path id="path905" fill="#000" stroke-width=".667" d="M9.344 4a1.669 1.668 0 00-1.076.383 1.667 1.666 0 00-.034.008 1.667 1.666 0 00-.236.086 1.67 1.67 0 00-.266-.09 1.667 1.666 0 00-1.078-.385 1.667 1.666 0 00-1.64 1.467 1.667 1.666 0 00-.912.965 1.667 1.666 0 00-.795.607 1.667 1.666 0 00.162 3.281 1.667 1.666 0 002.75.483 1.667 1.666 0 00.01.006 1.667 1.666 0 00.001.002c.44.79 1.259.944 1.87.796a1.493 1.493 0 00.35-.138 1.667 1.666 0 002.857-.842 1.667 1.568 0 00.361.037 1.667 1.568 0 001.666-1.568 1.667 1.568 0 00-.031-.297c.553-.373.824-1.035.64-1.676-.194-.686-.854-1.164-1.609-1.164a1.701 1.701 0 00-1.27-.625 1.747 1.747 0 00-.109 0c-.007-.033-.003-.067-.012-.1A1.669 1.668 0 009.343 4z"/>
</svg>