<svg xmlns="http://www.w3.org/2000/svg" viewBox="0 0 24 24" class="thunderstorm s-OxiKjTQbO035" style="font-size: 4em;"><defs>
    <linearGradient id="gr-stormcloud">
      <stop id="stop3193" offset="0" stop-color="#546e7a"></stop>
      <stop id="stop3195" offset="1" stop-color="#cfd8dc"></stop>
    </linearGradient>
    <linearGradient id="gr-lightning" x1="11" x2="10" y1="15" y2="19" gradientTransform="matrix(.9999 0 0 1 .002 1)" gradientUnits="userSpaceOnUse">
      <stop id="stop3203" offset="0" stop-color="#e65100"></stop>
      <stop id="stop3205" offset="1" stop-color="#ffc107"></stop>
    </linearGradient>
    <linearGradient href="#gr-stormcloud" id="linearGradient2289" x1="10" x2="6" y1="15.582" y2="7.63" gradientTransform="matrix(1.00075 0 0 1.00014 -.002 .999)" gradientUnits="userSpaceOnUse"></linearGradient>
    <linearGradient href="#gr-stormcloud" id="linearGradient2291" x1="14" x2="10" y1="13" y2="5" gradientTransform="matrix(1.00027 0 0 1 -.002 1)" gradientUnits="userSpaceOnUse"></linearGradient>
    <linearGradient href="#gr-stormcloud" id="linearGradient2293" x1="18" x2="14" y1="14.4" y2="6" gradientTransform="matrix(.9999 0 0 1 0 1)" gradientUnits="userSpaceOnUse"></linearGradient>
    <linearGradient href="#gr-stormcloud" id="linearGradient2295" x1="13" x2="9" y1="13" y2="5" gradientTransform="matrix(1.00017 0 0 1 -.002 1)" gradientUnits="userSpaceOnUse"></linearGradient>
    <linearGradient href="#gr-stormcloud" id="linearGradient2297" x1="15" x2="11" y1="16" y2="8" gradientTransform="matrix(1.00008 0 0 1.0002 0 .998)" gradientUnits="userSpaceOnUse"></linearGradient>
  </defs>
  <g>
    <path fill="#78909c" d="M9.952 13A2 2 0 0 0 8 15a2 2 0 0 0 2 2 2 2 0 0 0 1.5-.68A2 2 0 0 0 13 17a2 2 0 0 0 2-2 2 2 0 0 0-2-2 2 2 0 0 0-1.5.68A2 2 0 0 0 10 13a2 2 0 0 0-.048 0z" class="notcloud"></path>
    <path fill="url(#linearGradient2289)" d="M9.523 8.563a2.502 2.5 0 0 1 2.44 2.968 2.502 2.5 0 0 1-2.63 4.24 2.502 2.5 0 0 1-4.128-.725 2.502 2.5 0 0 1-.245-4.924h.001a2.502 2.5 0 0 1 2.873-.918 2.502 2.5 0 0 1 1.69-.64z" class="stormcloud"></path>
    <path fill="url(#linearGradient2291)" d="M11.511 14a2.505 2.504 0 0 0 1.81-.793c.56.298 1.213.372 1.826.208A2.5 2.5 0 0 0 16.36 9.33c.167-.475.187-.99.057-1.476a2.505 2.504 0 0 0-4.249-1.06 2.507 2.506 0 0 0-3.22.768c-1.682.398-2.145 2.02-1.876 3.086.25.99 1.104 1.712 2.12 1.834A2.504 2.503 0 0 0 11.512 14z" class="stormcloud"></path>
    <path fill="url(#linearGradient2293)" d="M16.595 7.002a2.502 2.502 0 0 0-1.921.791 2.5 2.5 0 0 0-3.133 3.76 2.5 2.5 0 0 0 3.633 2.654c.093.1.2.185.306.268A2.5 2.5 0 0 0 17.5 15.5 2.5 2.5 0 0 0 20 13a2.5 2.5 0 0 0-.048-.474A2.494 2.494 0 0 0 18.5 8a2.5 2.501 0 0 0-1.904-.998z" class="stormcloud"></path>
    <path fill="url(#linearGradient2295)" d="M9.982 6A2.5 2.5 0 0 0 7.52 8.201a2.5 2.5 0 0 0 .98 4.8 2.5 2.5 0 0 0 3.827.206 2.5 2.5 0 0 0 3.133-3.76 2.5 2.5 0 0 0-3.106-2.862 2.5 2.5 0 0 0-.527.208A2.5 2.5 0 0 0 9.982 6z" class="stormcloud"></path>
    <path fill="url(#linearGradient2297)" d="M12.483 9a2.5 2.5 0 0 0-1.982 1 2.5 2.5 0 0 0-2.415 3.148c.152.566.544 1.002.976 1.396.514 1.783 2.016 2.13 3.086 1.872a2.24 2.24 0 0 0 .527-.208 2.5 2.5 0 0 0 4.326-1.707 2.5 2.5 0 0 0-2.387-4.338A2.5 2.5 0 0 0 12.484 9z" class="stormcloud"></path>
  </g></svg>